<?xml version="1.0" encoding="UTF-8"?>
<!DOCTYPE svg PUBLIC "-//W3C//DTD SVG 1.1//EN" "http://www.w3.org/Graphics/SVG/1.1/DTD/svg11.dtd">
<svg xmlns="http://www.w3.org/2000/svg" version="1.1" width="1894px" height="944px" style="shape-rendering:geometricPrecision; text-rendering:geometricPrecision; image-rendering:optimizeQuality; fill-rule:evenodd; clip-rule:evenodd" xmlns:xlink="http://www.w3.org/1999/xlink">
<g><path style="opacity:1" fill="#fffefe" d="M -0.5,-0.5 C 38.1667,-0.5 76.8333,-0.5 115.5,-0.5C 111.087,60.4078 79.7534,99.9078 21.5,118C 14.306,120.028 6.97262,120.861 -0.5,120.5C -0.5,80.1667 -0.5,39.8333 -0.5,-0.5 Z"/></g>
<g><path style="opacity:1" fill="#ff0000" d="M 115.5,-0.5 C 350.5,-0.5 585.5,-0.5 820.5,-0.5C 824.066,55.5123 851.733,94.0123 903.5,115C 917.072,119.82 931.072,121.987 945.5,121.5C 945.5,196.5 945.5,271.5 945.5,346.5C 903.833,346.5 862.167,346.5 820.5,346.5C 820.5,388.167 820.5,429.833 820.5,471.5C 546.833,471.5 273.167,471.5 -0.5,471.5C -0.5,354.5 -0.5,237.5 -0.5,120.5C 6.97262,120.861 14.306,120.028 21.5,118C 79.7534,99.9078 111.087,60.4078 115.5,-0.5 Z"/></g>
<g><path style="opacity:1" fill="#fffefe" d="M 820.5,-0.5 C 903.833,-0.5 987.167,-0.5 1070.5,-0.5C 1067.01,53.4522 1040.68,91.2855 991.5,113C 976.624,118.313 961.291,121.146 945.5,121.5C 931.072,121.987 917.072,119.82 903.5,115C 851.733,94.0123 824.066,55.5123 820.5,-0.5 Z"/></g>
<g><path style="opacity:1" fill="#fffe00" d="M 1070.5,-0.5 C 1305.5,-0.5 1540.5,-0.5 1775.5,-0.5C 1779.88,58.4723 1809.88,97.6389 1865.5,117C 1874.65,119.644 1883.99,121.144 1893.5,121.5C 1893.5,238.167 1893.5,354.833 1893.5,471.5C 1619.17,471.5 1344.83,471.5 1070.5,471.5C 1070.5,429.833 1070.5,388.167 1070.5,346.5C 1028.83,346.5 987.167,346.5 945.5,346.5C 945.5,271.5 945.5,196.5 945.5,121.5C 961.291,121.146 976.624,118.313 991.5,113C 1040.68,91.2855 1067.01,53.4522 1070.5,-0.5 Z"/></g>
<g><path style="opacity:1" fill="#fffefe" d="M 1775.5,-0.5 C 1814.83,-0.5 1854.17,-0.5 1893.5,-0.5C 1893.5,40.1667 1893.5,80.8333 1893.5,121.5C 1883.99,121.144 1874.65,119.644 1865.5,117C 1809.88,97.6389 1779.88,58.4723 1775.5,-0.5 Z"/></g>
<g><path style="opacity:1" fill="#fffefe" d="M 454.5,109.5 C 510.289,106.97 552.123,129.636 580,177.5C 602.093,226.754 596.759,272.754 564,315.5C 528.464,353.455 485.297,366.622 434.5,355C 381.822,337.162 351.655,300.662 344,245.5C 341.864,190.928 364.364,150.094 411.5,123C 425.288,116.346 439.621,111.846 454.5,109.5 Z"/></g>
<g><path style="opacity:1" fill="#fffefe" d="M 1411.5,109.5 C 1476.03,108.323 1519.86,137.656 1543,197.5C 1554.61,241.453 1546.28,281.12 1518,316.5C 1481.57,354.568 1437.74,367.068 1386.5,354C 1334.68,335.175 1305.52,298.342 1299,243.5C 1297.41,193.183 1317.57,154.35 1359.5,127C 1375.79,117.627 1393.12,111.794 1411.5,109.5 Z"/></g>
<g><path style="opacity:1" fill="#fe0000" d="M 421.5,187.5 C 452.5,187.5 483.5,187.5 514.5,187.5C 514.5,218.5 514.5,249.5 514.5,280.5C 483.5,280.5 452.5,280.5 421.5,280.5C 421.5,249.5 421.5,218.5 421.5,187.5 Z"/></g>
<g><path style="opacity:1" fill="#fe0000" d="M 1376.5,187.5 C 1407.5,187.5 1438.5,187.5 1469.5,187.5C 1469.5,218.5 1469.5,249.5 1469.5,280.5C 1438.5,280.5 1407.5,280.5 1376.5,280.5C 1376.5,249.5 1376.5,218.5 1376.5,187.5 Z"/></g>
<g><path style="opacity:1" fill="#fffefe" d="M 945.5,346.5 C 987.167,346.5 1028.83,346.5 1070.5,346.5C 1070.5,388.167 1070.5,429.833 1070.5,471.5C 1070.5,513.167 1070.5,554.833 1070.5,596.5C 1028.83,596.5 987.167,596.5 945.5,596.5C 903.833,596.5 862.167,596.5 820.5,596.5C 820.5,554.833 820.5,513.167 820.5,471.5C 820.5,429.833 820.5,388.167 820.5,346.5C 862.167,346.5 903.833,346.5 945.5,346.5 Z"/></g>
<g><path style="opacity:1" fill="#ff0402" d="M 935.5,409.5 C 973.775,407.371 997.942,424.705 1008,461.5C 1010.54,500.283 993.036,524.449 955.5,534C 917.237,536.062 893.404,518.562 884,481.5C 882.021,443.666 899.187,419.666 935.5,409.5 Z"/></g>
<g><path style="opacity:1" fill="#ffa500" d="M -0.5,471.5 C 273.167,471.5 546.833,471.5 820.5,471.5C 820.5,513.167 820.5,554.833 820.5,596.5C 862.167,596.5 903.833,596.5 945.5,596.5C 945.5,671.5 945.5,746.5 945.5,821.5C 892.831,823.243 854.665,847.576 831,894.5C 824.499,910.174 820.999,926.507 820.5,943.5C 585.5,943.5 350.5,943.5 115.5,943.5C 112.953,891.553 88.2863,854.387 41.5,832C 28.0498,826.304 14.0498,823.137 -0.5,822.5C -0.5,705.5 -0.5,588.5 -0.5,471.5 Z"/></g>
<g><path style="opacity:1" fill="#98fb98" d="M 1070.5,471.5 C 1344.83,471.5 1619.17,471.5 1893.5,471.5C 1893.5,588.167 1893.5,704.833 1893.5,821.5C 1840.82,826.349 1803.99,853.016 1783,901.5C 1777.86,915.038 1775.36,929.038 1775.5,943.5C 1540.5,943.5 1305.5,943.5 1070.5,943.5C 1066.66,884.321 1036.66,845.154 980.5,826C 969.025,823.085 957.358,821.585 945.5,821.5C 945.5,746.5 945.5,671.5 945.5,596.5C 987.167,596.5 1028.83,596.5 1070.5,596.5C 1070.5,554.833 1070.5,513.167 1070.5,471.5 Z"/></g>
<g><path style="opacity:1" fill="#fffefe" d="M 454.5,584.5 C 506.812,581.905 547.312,602.239 576,645.5C 599.192,688.123 599.192,730.789 576,773.5C 547.335,816.916 506.835,837.082 454.5,834C 401.647,825.502 366.481,796.002 349,745.5C 335.534,693.905 348.367,650.072 387.5,614C 407.232,598.131 429.566,588.298 454.5,584.5 Z"/></g>
<g><path style="opacity:1" fill="#fefefe" d="M 1408.5,584.5 C 1470.15,581.73 1513.98,608.064 1540,663.5C 1558.33,718.331 1546.5,765.497 1504.5,805C 1470.37,832.228 1432.03,840.562 1389.5,830C 1336.82,812.162 1306.65,775.662 1299,720.5C 1296.86,665.931 1319.36,625.098 1366.5,598C 1380,591.554 1394,587.054 1408.5,584.5 Z"/></g>
<g><path style="opacity:1" fill="#fe0000" d="M 421.5,662.5 C 452.5,662.5 483.5,662.5 514.5,662.5C 514.5,693.5 514.5,724.5 514.5,755.5C 483.5,755.5 452.5,755.5 421.5,755.5C 421.5,724.5 421.5,693.5 421.5,662.5 Z"/></g>
<g><path style="opacity:1" fill="#fe0000" d="M 1376.5,662.5 C 1407.5,662.5 1438.5,662.5 1469.5,662.5C 1469.5,693.5 1469.5,724.5 1469.5,755.5C 1438.5,755.5 1407.5,755.5 1376.5,755.5C 1376.5,724.5 1376.5,693.5 1376.5,662.5 Z"/></g>
<g><path style="opacity:1" fill="#fefefe" d="M 945.5,821.5 C 957.358,821.585 969.025,823.085 980.5,826C 1036.66,845.154 1066.66,884.321 1070.5,943.5C 987.167,943.5 903.833,943.5 820.5,943.5C 820.999,926.507 824.499,910.174 831,894.5C 854.665,847.576 892.831,823.243 945.5,821.5 Z"/></g>
<g><path style="opacity:1" fill="#fffefe" d="M -0.5,822.5 C 14.0498,823.137 28.0498,826.304 41.5,832C 88.2863,854.387 112.953,891.553 115.5,943.5C 76.8333,943.5 38.1667,943.5 -0.5,943.5C -0.5,903.167 -0.5,862.833 -0.5,822.5 Z"/></g>
<g><path style="opacity:1" fill="#fefefe" d="M 1893.5,821.5 C 1893.5,862.167 1893.5,902.833 1893.5,943.5C 1854.17,943.5 1814.83,943.5 1775.5,943.5C 1775.36,929.038 1777.86,915.038 1783,901.5C 1803.99,853.016 1840.82,826.349 1893.5,821.5 Z"/></g>
</svg>
